<mxfile host="app.diagrams.net" modified="2023-07-25T08:44:09.525Z" agent="Mozilla/5.0 (Macintosh; Intel Mac OS X 10_15_7) AppleWebKit/537.36 (KHTML, like Gecko) Chrome/114.0.0.0 Safari/537.36" etag="EqYgGvEh3ObLWAUMo3BS" version="21.6.5" type="github">
  <diagram name="第 1 页" id="3K96sueZU6BseMQ5TEBY">
    <mxGraphModel dx="1434" dy="796" grid="1" gridSize="10" guides="1" tooltips="1" connect="1" arrows="1" fold="1" page="1" pageScale="1" pageWidth="3300" pageHeight="4681" math="0" shadow="0">
      <root>
        <mxCell id="0" />
        <mxCell id="1" parent="0" />
        <mxCell id="aVBQcN-FzkurEHWvbG6_-4" style="edgeStyle=orthogonalEdgeStyle;rounded=0;orthogonalLoop=1;jettySize=auto;html=1;exitX=1;exitY=0.5;exitDx=0;exitDy=0;entryX=0;entryY=0.5;entryDx=0;entryDy=0;" edge="1" parent="1" source="aVBQcN-FzkurEHWvbG6_-2" target="aVBQcN-FzkurEHWvbG6_-3">
          <mxGeometry relative="1" as="geometry" />
        </mxCell>
        <mxCell id="aVBQcN-FzkurEHWvbG6_-11" value="服务端&lt;br&gt;" style="edgeLabel;html=1;align=center;verticalAlign=middle;resizable=0;points=[];" vertex="1" connectable="0" parent="aVBQcN-FzkurEHWvbG6_-4">
          <mxGeometry x="-0.1231" y="2" relative="1" as="geometry">
            <mxPoint as="offset" />
          </mxGeometry>
        </mxCell>
        <mxCell id="aVBQcN-FzkurEHWvbG6_-13" style="edgeStyle=orthogonalEdgeStyle;rounded=0;orthogonalLoop=1;jettySize=auto;html=1;exitX=1;exitY=0.5;exitDx=0;exitDy=0;entryX=0;entryY=0.5;entryDx=0;entryDy=0;" edge="1" parent="1" source="aVBQcN-FzkurEHWvbG6_-2" target="aVBQcN-FzkurEHWvbG6_-10">
          <mxGeometry relative="1" as="geometry" />
        </mxCell>
        <mxCell id="aVBQcN-FzkurEHWvbG6_-18" value="前端" style="edgeLabel;html=1;align=center;verticalAlign=middle;resizable=0;points=[];" vertex="1" connectable="0" parent="aVBQcN-FzkurEHWvbG6_-13">
          <mxGeometry x="0.1429" y="2" relative="1" as="geometry">
            <mxPoint as="offset" />
          </mxGeometry>
        </mxCell>
        <mxCell id="aVBQcN-FzkurEHWvbG6_-2" value="数据洞察" style="rounded=0;whiteSpace=wrap;html=1;" vertex="1" parent="1">
          <mxGeometry x="240" y="400" width="120" height="60" as="geometry" />
        </mxCell>
        <mxCell id="aVBQcN-FzkurEHWvbG6_-8" style="edgeStyle=orthogonalEdgeStyle;rounded=0;orthogonalLoop=1;jettySize=auto;html=1;exitX=1;exitY=0.5;exitDx=0;exitDy=0;entryX=0;entryY=0.5;entryDx=0;entryDy=0;" edge="1" parent="1" source="aVBQcN-FzkurEHWvbG6_-3" target="aVBQcN-FzkurEHWvbG6_-7">
          <mxGeometry relative="1" as="geometry" />
        </mxCell>
        <mxCell id="aVBQcN-FzkurEHWvbG6_-16" value="&lt;font color=&quot;#ff0000&quot;&gt;结果-&amp;gt;无规范&lt;/font&gt;" style="edgeLabel;html=1;align=center;verticalAlign=middle;resizable=0;points=[];" vertex="1" connectable="0" parent="aVBQcN-FzkurEHWvbG6_-8">
          <mxGeometry x="-0.1333" y="2" relative="1" as="geometry">
            <mxPoint as="offset" />
          </mxGeometry>
        </mxCell>
        <mxCell id="aVBQcN-FzkurEHWvbG6_-3" value="&lt;font style=&quot;font-size: 14px;&quot; color=&quot;#00994d&quot;&gt;LLM洞察&lt;/font&gt;" style="rounded=0;whiteSpace=wrap;html=1;" vertex="1" parent="1">
          <mxGeometry x="420" y="470" width="120" height="60" as="geometry" />
        </mxCell>
        <mxCell id="aVBQcN-FzkurEHWvbG6_-7" value="文本展示结果" style="rounded=1;whiteSpace=wrap;html=1;" vertex="1" parent="1">
          <mxGeometry x="710" y="470" width="120" height="60" as="geometry" />
        </mxCell>
        <mxCell id="aVBQcN-FzkurEHWvbG6_-15" style="edgeStyle=orthogonalEdgeStyle;rounded=0;orthogonalLoop=1;jettySize=auto;html=1;exitX=1;exitY=0.5;exitDx=0;exitDy=0;entryX=0;entryY=0.5;entryDx=0;entryDy=0;" edge="1" parent="1" source="aVBQcN-FzkurEHWvbG6_-10" target="aVBQcN-FzkurEHWvbG6_-14">
          <mxGeometry relative="1" as="geometry" />
        </mxCell>
        <mxCell id="aVBQcN-FzkurEHWvbG6_-17" value="&lt;font color=&quot;#ff0000&quot;&gt;结果-&amp;gt;结构规范&lt;/font&gt;" style="edgeLabel;html=1;align=center;verticalAlign=middle;resizable=0;points=[];" vertex="1" connectable="0" parent="aVBQcN-FzkurEHWvbG6_-15">
          <mxGeometry x="-0.0444" y="2" relative="1" as="geometry">
            <mxPoint as="offset" />
          </mxGeometry>
        </mxCell>
        <mxCell id="aVBQcN-FzkurEHWvbG6_-10" value="&lt;font style=&quot;font-size: 14px;&quot; color=&quot;#00994d&quot;&gt;ava洞察&lt;/font&gt;" style="rounded=0;whiteSpace=wrap;html=1;" vertex="1" parent="1">
          <mxGeometry x="420" y="320" width="120" height="60" as="geometry" />
        </mxCell>
        <mxCell id="aVBQcN-FzkurEHWvbG6_-24" style="edgeStyle=orthogonalEdgeStyle;rounded=0;orthogonalLoop=1;jettySize=auto;html=1;exitX=1;exitY=0.5;exitDx=0;exitDy=0;entryX=0;entryY=0.5;entryDx=0;entryDy=0;" edge="1" parent="1" source="aVBQcN-FzkurEHWvbG6_-14" target="aVBQcN-FzkurEHWvbG6_-19">
          <mxGeometry relative="1" as="geometry" />
        </mxCell>
        <mxCell id="aVBQcN-FzkurEHWvbG6_-25" style="edgeStyle=orthogonalEdgeStyle;rounded=0;orthogonalLoop=1;jettySize=auto;html=1;exitX=1;exitY=0.5;exitDx=0;exitDy=0;entryX=0;entryY=0.5;entryDx=0;entryDy=0;" edge="1" parent="1" source="aVBQcN-FzkurEHWvbG6_-14" target="aVBQcN-FzkurEHWvbG6_-21">
          <mxGeometry relative="1" as="geometry" />
        </mxCell>
        <mxCell id="aVBQcN-FzkurEHWvbG6_-14" value="可视化展示结果" style="rounded=1;whiteSpace=wrap;html=1;fillColor=#ffe6cc;strokeColor=#d79b00;" vertex="1" parent="1">
          <mxGeometry x="710" y="320" width="120" height="60" as="geometry" />
        </mxCell>
        <mxCell id="aVBQcN-FzkurEHWvbG6_-19" value="文本解读" style="rounded=1;whiteSpace=wrap;html=1;fillColor=#ffe6cc;strokeColor=#d79b00;" vertex="1" parent="1">
          <mxGeometry x="880" y="280" width="100" height="40" as="geometry" />
        </mxCell>
        <mxCell id="aVBQcN-FzkurEHWvbG6_-21" value="文本可视化" style="rounded=1;whiteSpace=wrap;html=1;fillColor=#ffe6cc;strokeColor=#d79b00;" vertex="1" parent="1">
          <mxGeometry x="880" y="390" width="100" height="40" as="geometry" />
        </mxCell>
      </root>
    </mxGraphModel>
  </diagram>
</mxfile>
